<?xml version="1.0" standalone="no"?>
<!DOCTYPE svg PUBLIC "-//W3C//DTD SVG 20010904//EN"
 "http://www.w3.org/TR/2001/REC-SVG-20010904/DTD/svg10.dtd">
<svg version="1.0" xmlns="http://www.w3.org/2000/svg"
 width="500.000000pt" height="500.000000pt" viewBox="0 0 500.000000 500.000000"
 preserveAspectRatio="xMidYMid meet">

<g transform="translate(0.000000,500.000000) scale(0.100000,-0.100000)"
fill="#000000" stroke="none">
<path d="M2104 3670 c-87 -16 -215 -60 -299 -103 -503 -261 -714 -874 -476
-1383 123 -261 354 -468 624 -559 573 -192 1191 141 1353 730 32 113 42 303
24 426 -61 418 -365 757 -780 870 -86 23 -357 35 -446 19z m426 -80 c501 -129
823 -626 735 -1133 -41 -235 -187 -477 -371 -617 -286 -216 -663 -265 -988
-130 -501 209 -743 786 -541 1288 131 324 431 558 790 616 72 11 291 -3 375
-24z"/>
<path d="M2185 3504 c-33 -7 -117 -13 -186 -14 -89 0 -129 -4 -136 -12 -14
-20 -129 -315 -148 -383 -10 -33 -21 -69 -25 -80 -5 -11 -13 -42 -20 -69 -9
-41 -9 -51 6 -67 17 -19 184 -75 399 -133 72 -20 166 -47 210 -60 212 -63 536
-90 618 -51 52 24 62 65 34 140 -22 60 -35 71 -124 101 -100 34 -183 76 -183
94 0 9 -8 24 -17 33 -30 28 -122 97 -130 97 -8 0 -39 29 -81 76 -11 12 -25 23
-31 25 -7 3 -14 27 -15 54 -7 104 -26 218 -41 241 -18 27 -39 29 -130 8z m129
-41 c3 -10 7 -46 10 -81 2 -35 7 -66 10 -69 3 -4 6 -13 6 -21 0 -12 -6 -10
-24 7 -19 18 -23 30 -19 55 2 17 -1 45 -8 61 -7 17 -12 33 -11 38 1 4 -1 6 -5
6 -5 -1 -15 -1 -23 1 -11 1 -9 4 5 10 32 14 53 11 59 -7z m-408 -269 c51 -31
103 -36 182 -19 42 10 78 13 79 9 9 -25 24 -36 69 -52 36 -13 57 -29 81 -62
18 -25 43 -58 55 -73 13 -15 24 -32 26 -37 5 -13 -25 -77 -53 -114 l-27 -35
-81 31 c-45 17 -120 43 -167 58 l-85 27 -7 59 c-4 31 -6 59 -4 61 2 2 43 -19
92 -48 136 -80 196 -91 224 -40 15 28 -3 91 -33 119 l-24 22 -12 -40 c-8 -28
-17 -40 -30 -40 -10 0 -58 21 -107 46 -240 124 -309 167 -299 185 5 8 46 -11
121 -57z m29 -263 c116 -38 263 -88 328 -111 251 -87 563 -132 660 -95 13 5
17 2 17 -14 0 -31 -57 -41 -237 -43 -161 -2 -177 0 -383 51 -150 37 -595 172
-617 187 -15 9 -22 22 -19 32 3 9 8 30 12 45 3 15 11 26 18 23 6 -3 106 -36
221 -75z m765 -28 c25 -11 75 -30 113 -43 37 -13 67 -27 67 -31 0 -13 -57 -15
-145 -7 -60 6 -99 5 -122 -3 -19 -6 -37 -8 -40 -5 -4 3 4 26 17 50 15 31 20
53 16 71 l-7 27 28 -19 c15 -11 48 -29 73 -40z"/>
<path d="M1637 2552 c-10 -11 -17 -35 -17 -60 0 -35 7 -49 45 -92 45 -51 58
-90 30 -90 -10 0 -15 10 -15 30 0 27 -3 30 -30 30 -29 0 -30 -2 -30 -43 0 -55
22 -77 78 -77 52 0 72 26 72 91 0 41 -5 53 -45 97 -25 27 -45 55 -45 61 0 16
20 13 26 -4 4 -9 19 -15 36 -15 29 0 30 2 24 33 -3 17 -14 38 -23 45 -25 18
-87 15 -106 -6z"/>
<path d="M1790 2410 l0 -160 35 0 35 0 1 63 c1 60 1 61 10 22 5 -22 11 -50 14
-62 4 -18 12 -23 35 -23 l30 0 0 160 0 160 -30 0 -30 0 -1 -67 -1 -68 -9 45
c-5 25 -12 55 -15 68 -3 18 -11 22 -39 22 l-35 0 0 -160z"/>
<path d="M1980 2410 l0 -160 65 0 65 0 0 29 c0 26 -4 30 -32 33 -30 3 -33 6
-33 38 0 32 3 35 33 38 29 3 33 6 30 30 -2 22 -9 28 -36 30 -29 3 -33 6 -30
30 2 22 9 28 36 30 28 3 32 7 32 33 l0 29 -65 0 -65 0 0 -160z"/>
<path d="M2156 2548 c-6 -30 -26 -236 -26 -270 0 -24 4 -28 30 -28 25 0 30 4
30 25 0 18 5 25 20 25 15 0 20 -7 20 -25 0 -22 4 -25 33 -25 l32 0 -14 160
-15 160 -53 0 c-47 0 -53 -3 -57 -22z m64 -138 c0 -33 -4 -60 -10 -60 -6 0
-10 27 -10 60 0 33 4 60 10 60 6 0 10 -27 10 -60z"/>
<path d="M2310 2410 l0 -160 35 0 35 0 1 63 1 62 16 -62 c15 -62 16 -63 50
-63 23 0 33 4 29 13 -2 6 -12 46 -22 88 -17 72 -17 80 -2 142 10 36 17 69 17
72 0 4 -15 5 -32 3 -31 -3 -34 -7 -45 -53 l-11 -50 -1 53 -1 52 -35 0 -35 0 0
-160z"/>
<path d="M2490 2410 l0 -160 65 0 65 0 0 30 c0 27 -3 30 -30 30 -28 0 -30 2
-30 40 0 38 2 40 31 40 27 0 30 3 27 28 -2 21 -9 28 -30 30 -24 3 -28 8 -28
33 0 26 3 29 30 29 27 0 30 3 30 30 l0 30 -65 0 -65 0 0 -160z"/>
<path d="M2640 2410 l0 -160 35 0 35 0 0 76 c0 47 4 73 10 69 6 -3 10 -37 10
-76 l0 -69 35 0 35 0 0 66 c0 36 -5 75 -11 86 -8 14 -8 23 0 31 16 16 13 89
-5 115 -13 19 -24 22 -80 22 l-64 0 0 -160z m98 73 c-4 -39 -28 -42 -28 -4 0
21 5 31 16 31 11 0 14 -8 12 -27z"/>
<path d="M2837 2552 c-10 -11 -17 -35 -17 -60 0 -35 7 -49 45 -92 45 -51 58
-90 30 -90 -10 0 -15 10 -15 30 0 27 -3 30 -30 30 -29 0 -30 -2 -30 -43 0 -55
22 -77 78 -77 52 0 72 26 72 91 0 41 -5 53 -45 97 -25 27 -45 55 -45 61 0 16
20 13 26 -4 4 -9 19 -15 36 -15 29 0 30 2 24 33 -3 17 -14 38 -23 45 -25 18
-87 15 -106 -6z"/>
<path d="M1454 2417 c-2 -7 -3 -74 -2 -148 l3 -134 829 -3 c657 -2 831 0 838
10 4 7 8 70 8 139 0 97 -3 129 -14 138 -9 7 -40 11 -78 9 -55 -3 -63 -5 -63
-23 0 -17 8 -20 48 -23 l47 -3 0 -100 0 -99 -785 0 -785 0 0 100 0 100 49 0
c48 0 63 10 54 38 -6 17 -142 17 -149 -1z"/>
</g>
</svg>
